<?xml version="1.0" encoding="iso-8859-1"?>
<!-- Generator: Adobe Illustrator 16.0.4, SVG Export Plug-In . SVG Version: 6.00 Build 0)  -->
<!DOCTYPE svg PUBLIC "-//W3C//DTD SVG 1.1//EN" "http://www.w3.org/Graphics/SVG/1.1/DTD/svg11.dtd">
<svg version="1.1" xmlns="http://www.w3.org/2000/svg" xmlns:xlink="http://www.w3.org/1999/xlink" x="0px" y="0px"
	 width="10px" height="22px" viewBox="0 0 10 22" style="enable-background:new 0 0 10 22;"
	 xml:space="preserve">
<g id="icons_1_">
	<g id="Rounded_Rectangle_21_copy_3_xA0_Image_1_">
	</g>
	<g id="Rounded_Rectangle_21_copy_2_xA0_Image_1_">
	</g>
	<g id="home_x5F_address-icon_xA0_Image_1_">
	</g>
	<g id="Rounded_Rectangle_21_xA0_Image_1_">
	</g>
	<g id="Contact-Methods-Phone-icon_xA0_Image_1_">
	</g>
</g>
<g id="bullet_1_" style="enable-background:new    ;">
</g>
<g id="quotes_1_">
	<g id="_x201C__5_">
	</g>
	<g id="_x201C__4_">
	</g>
	<g id="_x201C__3_">
	</g>
	<g id="_x201C__2_">
	</g>
	<g id="_x201C__1_">
	</g>
	<g id="_x201C_">
	</g>
</g>
<g id="big_heart_xA0_Image_1_">
</g>
<g id="mag_1_" style="enable-background:new    ;">
</g>
<g id="arrows_1_">
</g>
<g id="hearts_1_">
</g>
<g id="Layer_28">
	<path style="fill:#3D599A;" d="M3.478,1.235c0.834-0.817,2.023-1.093,3.145-1.127c1.186-0.011,2.371-0.004,3.557-0.004
		c0.004,1.284,0.006,2.57-0.001,3.854C9.411,3.956,8.645,3.959,7.88,3.956C7.394,3.925,6.894,4.302,6.806,4.798
		C6.794,5.657,6.802,6.517,6.802,7.376c1.124,0.005,2.248-0.001,3.371,0.003c-0.082,1.242-0.231,2.481-0.408,3.713
		c-0.993,0.01-1.986-0.001-2.979,0.005c-0.009,3.667,0.005,7.333-0.008,11c-1.474,0.006-2.949-0.004-4.423,0.004
		c-0.028-3.667,0.002-7.336-0.015-11.003c-0.72-0.008-1.439,0.006-2.159-0.006C0.185,9.86,0.183,8.626,0.183,7.394
		c0.719-0.007,1.438,0.003,2.158-0.005c0.021-1.198-0.022-2.397,0.022-3.595C2.435,2.846,2.787,1.891,3.478,1.235z"/>
</g>
<g id="Layer_29">
</g>
<g id="Layer_22">
	<g id="Layer_23">
	</g>
</g>
</svg>
