<?xml version="1.0" encoding="iso-8859-1"?>
<!-- Generator: Adobe Illustrator 16.0.4, SVG Export Plug-In . SVG Version: 6.00 Build 0)  -->
<!DOCTYPE svg PUBLIC "-//W3C//DTD SVG 1.1//EN" "http://www.w3.org/Graphics/SVG/1.1/DTD/svg11.dtd">
<svg version="1.1" xmlns="http://www.w3.org/2000/svg" xmlns:xlink="http://www.w3.org/1999/xlink" x="0px" y="0px" width="32px"
	 height="22px" viewBox="0 0 32 22" style="enable-background:new 0 0 32 22;" xml:space="preserve">
<g id="icons_1_">
	<g id="_x23_020201ff_1_">
		<path style="fill:#186593;" d="M20.029,1.021C20.722,0.502,21.525,0.101,22.396,0c-0.121,0.517-0.614,0.786-1.046,1.021
			c0.65-0.19,1.285-0.472,1.97-0.519c0.185-0.006,0.444,0.001,0.51,0.212c0.098,0.262-0.17,0.467-0.374,0.576
			c-0.748,0.383-1.612,0.439-2.373,0.792c1.563-0.146,3.124,0.456,4.311,1.448c1.415,1.155,2.352,2.827,2.691,4.605
			c1.252,0.333,2.604,0.092,3.778-0.403c-0.59,1.326-2.093,1.931-3.468,2.049c1.143,0.427,2.398,0.5,3.604,0.373
			c-0.957,1.05-2.437,1.46-3.827,1.428c-0.578,2.343-1.954,4.445-3.739,6.065c-3.473,3.117-8.282,4.611-12.931,4.314
			C7.036,21.692,2.639,19.509,0,15.887c0.23,0.133,0.424,0.317,0.645,0.466c2.043,1.466,4.763,1.931,7.193,1.277
			c1.475-0.378,2.812-1.195,3.881-2.262c-0.683,0.045-1.443-0.075-1.939-0.586c-0.31-0.292-0.437-0.772-0.25-1.163
			c0.225-0.494,0.725-0.775,1.199-0.996c-1.551,0.219-3.241-0.497-3.956-1.918c0.524-0.619,1.361-0.817,2.138-0.878
			C8.007,9.566,7.077,9.246,6.391,8.576c-0.546-0.507-0.899-1.21-1.006-1.942c0.64-0.118,1.284-0.263,1.941-0.236
			c-1.49-0.768-2.85-2.231-2.731-4c2.824,1.021,5.601,2.186,8.254,3.591c0.928,0.506,1.7,1.237,2.458,1.958
			c0.734-1.892,1.524-3.792,2.72-5.451c0.64-0.873,1.396-1.685,2.324-2.261C20.313,0.523,20.166,0.772,20.029,1.021z"/>
	</g>
	<g id="Rounded_Rectangle_21_copy_3_xA0_Image_1_">
	</g>
	<g id="Rounded_Rectangle_21_copy_2_xA0_Image_1_">
	</g>
	<g id="home_x5F_address-icon_xA0_Image_1_">
	</g>
	<g id="Rounded_Rectangle_21_xA0_Image_1_">
	</g>
	<g id="Contact-Methods-Phone-icon_xA0_Image_1_">
	</g>
</g>
<g id="bullet_1_" style="enable-background:new    ;">
</g>
<g id="quotes_1_">
	<g id="_x201C__5_">
	</g>
	<g id="_x201C__4_">
	</g>
	<g id="_x201C__3_">
	</g>
	<g id="_x201C__2_">
	</g>
	<g id="_x201C__1_">
	</g>
	<g id="_x201C_">
	</g>
</g>
<g id="big_heart_xA0_Image_1_">
</g>
<g id="mag_1_" style="enable-background:new    ;">
</g>
<g id="arrows_1_">
</g>
<g id="hearts_1_">
</g>
<g id="Layer_28">
</g>
<g id="Layer_29">
</g>
<g id="Layer_22">
	<g id="Layer_23">
	</g>
</g>
</svg>
